<svg width="164" height="92" viewBox="0 0 164 92" fill="none" xmlns="http://www.w3.org/2000/svg">
<path d="M9.24 81.4C8.92 81.4 8.58667 81.3467 8.24 81.24C7.92 81.1333 7.65333 80.88 7.44 80.48C7.22667 80.08 7.12 79.4667 7.12 78.64C7.12 78.0533 7.16 77.3333 7.24 76.48C7.34667 75.6267 7.48 74.7067 7.64 73.72C7.85333 72.3867 8.02667 70.9867 8.16 69.52C8.32 68.0267 8.4 66.5067 8.4 64.96C8.4 63.7067 8.33333 62.6267 8.2 61.72C8.09333 60.7867 7.94667 60.0667 7.76 59.56C6.74667 59.5867 5.78667 59.6533 4.88 59.76C3.97333 59.8667 3.05333 60.04 2.12 60.28C1.88 60.3067 1.66667 60.3467 1.48 60.4C1.32 60.4267 1.16 60.44 1 60.44C0.76 60.44 0.586667 60.4 0.48 60.32C0.373333 60.2133 0.32 59.9733 0.32 59.6C0.32 59.1467 0.386667 58.68 0.52 58.2C0.653333 57.6933 0.853333 57.2667 1.12 56.92C1.38667 56.5467 1.69333 56.28 2.04 56.12C2.41333 55.9333 2.81333 55.8133 3.24 55.76C3.90667 55.68 4.76 55.6133 5.8 55.56C6.84 55.48 7.97333 55.4133 9.2 55.36C10.4533 55.3067 11.68 55.28 12.88 55.28C14.8267 55.28 16.2133 55.2933 17.04 55.32C17.8933 55.3467 18.4667 55.3867 18.76 55.44C19.1333 55.4933 19.3867 55.6133 19.52 55.8C19.68 55.96 19.76 56.2267 19.76 56.6C19.76 57.32 19.44 58.04 18.8 58.76C18.5333 59.08 18.2533 59.3333 17.96 59.52C17.6667 59.68 17.28 59.7467 16.8 59.72C16.3733 59.6667 15.7467 59.6267 14.92 59.6C14.0933 59.5733 13.1733 59.56 12.16 59.56C12.1333 60.4933 12.0533 61.5867 11.92 62.84C11.8133 64.0667 11.68 65.3067 11.52 66.56C11.36 67.7867 11.2267 69.0133 11.12 70.24C11.0133 71.4667 10.96 72.5867 10.96 73.6C10.96 74.5333 11.04 75.36 11.2 76.08C11.3867 76.7733 11.7467 77.3733 12.28 77.88C12.6533 78.2533 12.84 78.6533 12.84 79.08C12.84 79.6667 12.5067 80.2 11.84 80.68C11.1733 81.16 10.3067 81.4 9.24 81.4ZM22.9269 61.12C22.1802 61.0933 21.5802 60.8667 21.1269 60.44C20.6735 60.0133 20.4469 59.4133 20.4469 58.64C20.4735 57.8133 20.7535 57.1467 21.2869 56.64C21.8202 56.1067 22.5002 55.8533 23.3269 55.88C24.1002 55.9067 24.7002 56.1333 25.1269 56.56C25.5802 56.9867 25.7935 57.5867 25.7669 58.36C25.7402 59.16 25.4735 59.8267 24.9669 60.36C24.4602 60.8667 23.7802 61.12 22.9269 61.12ZM22.9669 81.4C22.1669 81.4 21.5402 81.1867 21.0869 80.76C20.6335 80.3067 20.4069 79.5467 20.4069 78.48C20.4069 77.8667 20.4602 77.2667 20.5669 76.68C20.7002 76.0933 20.8469 75.52 21.0069 74.96C21.1935 74.3733 21.3402 73.7733 21.4469 73.16C21.5802 72.5467 21.6469 71.8933 21.6469 71.2C21.6469 70.72 21.5802 70.2667 21.4469 69.84C21.3135 69.3867 21.0202 69.0533 20.5669 68.84C20.2202 68.6533 19.9135 68.4667 19.6469 68.28C19.4069 68.0667 19.2869 67.8 19.2869 67.48C19.2869 67.1067 19.4602 66.7067 19.8069 66.28C20.1535 65.8533 20.6069 65.4933 21.1669 65.2C21.7535 64.88 22.3535 64.72 22.9669 64.72C23.6335 64.72 24.1135 64.8933 24.4069 65.24C24.7269 65.5867 24.9402 66.0267 25.0469 66.56C25.1535 67.0933 25.2069 67.64 25.2069 68.2C25.2069 69.0533 25.1402 69.8933 25.0069 70.72C24.8735 71.52 24.7402 72.2667 24.6069 72.96C24.5002 73.4667 24.4202 73.9333 24.3669 74.36C24.3135 74.7867 24.2869 75.1867 24.2869 75.56C24.2869 76.2267 24.4469 76.7333 24.7669 77.08C25.0869 77.4 25.5402 77.7067 26.1269 78C26.3669 78.1333 26.4869 78.3333 26.4869 78.6C26.4869 78.8133 26.3802 79.1467 26.1669 79.6C25.9535 80.0533 25.5802 80.4667 25.0469 80.84C24.5402 81.2133 23.8469 81.4 22.9669 81.4ZM35.2888 81.52C33.4221 81.52 31.9554 80.96 30.8888 79.84C29.8488 78.6933 29.3288 77.1067 29.3288 75.08C29.3288 73.08 29.7554 71.2933 30.6087 69.72C31.4621 68.1467 32.6354 66.9067 34.1288 66C35.6221 65.0933 37.3154 64.64 39.2088 64.64C40.4888 64.64 41.5021 64.8533 42.2488 65.28C42.9954 65.7067 43.3688 66.2933 43.3688 67.04C43.3688 67.7067 43.0488 68.36 42.4088 69C42.1688 69.24 41.8488 69.4667 41.4488 69.68C41.0754 69.8667 40.7821 69.96 40.5688 69.96C40.3288 69.96 40.1288 69.8667 39.9688 69.68C39.7021 69.3867 39.3554 69.1067 38.9288 68.84C38.5021 68.5733 37.9021 68.44 37.1288 68.44C35.8221 68.44 34.7554 68.8933 33.9288 69.8C33.1021 70.68 32.6888 71.84 32.6888 73.28C32.6888 74.5867 33.0621 75.64 33.8088 76.44C34.5554 77.24 35.5421 77.64 36.7688 77.64C37.4088 77.64 38.1021 77.5333 38.8488 77.32C39.6221 77.08 40.3021 76.7467 40.8888 76.32C41.1821 76.0533 41.4888 75.92 41.8088 75.92C42.3421 75.92 42.6088 76.2533 42.6088 76.92C42.6088 77.8 42.1688 78.64 41.2888 79.44C40.6221 80.0533 39.7288 80.56 38.6088 80.96C37.5154 81.3333 36.4088 81.52 35.2888 81.52ZM47.0244 81.44C46.731 81.44 46.451 81.3467 46.1844 81.16C45.9177 81 45.811 80.7733 45.8644 80.48C46.2644 78.3467 46.5977 76.1867 46.8644 74C47.1577 71.7867 47.3044 69.56 47.3044 67.32C47.3044 65.3467 47.2377 63.56 47.1044 61.96C46.971 60.36 46.5444 58.8267 45.8244 57.36C45.691 57.0667 45.5844 56.8133 45.5044 56.6C45.4244 56.3867 45.3844 56.1867 45.3844 56C45.3844 55.4933 45.6777 55 46.2644 54.52C46.851 54.04 47.4777 53.8 48.1444 53.8C49.1044 53.8 49.7577 54.3867 50.1044 55.56C50.451 56.7333 50.6244 58.4667 50.6244 60.76C50.6244 63.5067 50.4644 65.9067 50.1444 67.96C49.8244 69.9867 49.5444 71.5333 49.3044 72.6L49.4644 72.68C49.9977 71.3733 50.6777 70.12 51.5044 68.92C52.331 67.6933 53.2777 66.68 54.3444 65.88C55.4377 65.08 56.6244 64.68 57.9044 64.68C59.1577 64.68 60.1177 65.0533 60.7844 65.8C61.4777 66.5467 61.8244 67.44 61.8244 68.48C61.8244 69.7067 61.3844 70.8 60.5044 71.76C59.6244 72.72 58.4777 73.52 57.0644 74.16C57.411 75.0667 57.9044 75.7867 58.5444 76.32C59.1844 76.8267 59.9977 77.08 60.9844 77.08C61.3044 77.08 61.571 77.0533 61.7844 77C62.131 76.92 62.3044 77.2533 62.3044 78C62.3044 78.4267 62.2244 78.9067 62.0644 79.44C61.9044 79.9733 61.5844 80.44 61.1044 80.84C60.651 81.2133 59.9577 81.4 59.0244 81.4C57.771 81.4 56.7444 81.04 55.9444 80.32C55.171 79.5733 54.5577 78.6667 54.1044 77.6C53.6777 76.5067 53.3444 75.4267 53.1044 74.36C52.891 73.3733 53.2244 72.8533 54.1044 72.8C55.0377 72.6933 55.8244 72.4133 56.4644 71.96C57.1044 71.5067 57.4244 70.9067 57.4244 70.16C57.4244 69.3067 57.011 68.88 56.1844 68.88C55.651 68.88 55.1044 69.08 54.5444 69.48C54.011 69.8533 53.5044 70.3067 53.0244 70.84C52.571 71.3733 52.1977 71.8933 51.9044 72.4C51.5044 73.0933 51.1577 73.7733 50.8644 74.44C50.571 75.1067 50.331 75.7733 50.1444 76.44V78.04C50.1444 79.0267 49.851 79.84 49.2644 80.48C48.7044 81.12 47.9577 81.44 47.0244 81.44ZM71.3938 81.52C69.3671 81.52 67.7804 80.9467 66.6338 79.8C65.5138 78.6267 64.9538 77 64.9538 74.92C64.9538 73.0267 65.3671 71.3067 66.1938 69.76C67.0204 68.2133 68.1271 66.9867 69.5138 66.08C70.9271 65.1467 72.4738 64.68 74.1537 64.68C75.7538 64.68 77.0338 65.08 77.9938 65.88C78.9538 66.6533 79.4338 67.6933 79.4338 69C79.4338 70.04 79.1138 71 78.4738 71.88C77.8338 72.76 76.9804 73.4667 75.9138 74C74.8471 74.5067 73.6604 74.76 72.3538 74.76C70.7538 74.76 69.4471 74.4 68.4338 73.68C68.4604 74.9067 68.8738 75.8933 69.6738 76.64C70.5004 77.3867 71.5538 77.76 72.8338 77.76C73.6071 77.76 74.3938 77.6267 75.1938 77.36C76.0204 77.0667 76.7271 76.68 77.3138 76.2C77.6871 75.88 78.0338 75.72 78.3538 75.72C78.6204 75.72 78.8338 75.8133 78.9938 76C79.1804 76.16 79.2738 76.3733 79.2738 76.64C79.2738 77.2267 78.7671 78 77.7538 78.96C75.9671 80.6667 73.8471 81.52 71.3938 81.52ZM71.9938 72.12C72.9538 72.12 73.7538 71.92 74.3938 71.52C75.0338 71.12 75.3537 70.6133 75.3537 70C75.3537 69.4933 75.1404 69.1067 74.7138 68.84C74.2871 68.5467 73.7004 68.4 72.9538 68.4C71.9671 68.4 71.1004 68.6667 70.3538 69.2C69.6338 69.7067 69.1138 70.4267 68.7938 71.36C69.1671 71.6 69.6471 71.7867 70.2338 71.92C70.8204 72.0533 71.4071 72.12 71.9938 72.12ZM88.3366 81.52C86.7099 81.52 85.5366 80.9867 84.8166 79.92C84.1232 78.8267 83.7766 77.4267 83.7766 75.72C83.7766 75.1067 83.8032 74.5067 83.8566 73.92C83.9366 73.3333 84.0166 72.7467 84.0966 72.16C84.1766 71.5733 84.2566 71 84.3366 70.44C84.4166 69.88 84.4832 69.3467 84.5366 68.84C83.9766 69 83.4166 69.08 82.8566 69.08C82.2699 69.08 81.9766 68.84 81.9766 68.36C81.9766 67.8533 82.2032 67.24 82.6566 66.52C83.1099 65.7733 83.6699 65.04 84.3366 64.32C85.0299 63.6 85.7099 63 86.3766 62.52C87.0699 62.0133 87.6566 61.76 88.1366 61.76C88.7232 61.76 89.0166 62.2667 89.0166 63.28C89.0166 63.5467 88.9899 63.8267 88.9366 64.12C88.9099 64.3867 88.8699 64.6667 88.8166 64.96C89.3232 64.8533 89.8299 64.76 90.3366 64.68C90.8699 64.6 91.3766 64.56 91.8566 64.56C92.4699 64.56 92.9366 64.6667 93.2566 64.88C93.6032 65.0933 93.7766 65.5067 93.7766 66.12C93.7766 66.76 93.6166 67.4 93.2966 68.04C93.0032 68.68 92.6699 69 92.2966 69C92.2166 69 92.0832 68.9867 91.8966 68.96C91.7099 68.9333 91.4832 68.8933 91.2166 68.84C90.8699 68.76 90.4299 68.68 89.8966 68.6C89.3632 68.52 88.7232 68.48 87.9766 68.48C87.7899 69.3067 87.6166 70.16 87.4566 71.04C87.3232 71.8933 87.2566 72.6667 87.2566 73.36C87.2566 74.9067 87.6432 75.96 88.4166 76.52C89.1899 77.08 90.3099 77.36 91.7766 77.36C92.2299 77.36 92.5499 77.44 92.7366 77.6C92.9232 77.7333 93.0166 77.9867 93.0166 78.36C93.0166 79.24 92.5632 79.9867 91.6566 80.6C90.7499 81.2133 89.6432 81.52 88.3366 81.52ZM109.636 81.4C109.316 81.4 108.983 81.3467 108.636 81.24C108.316 81.1333 108.05 80.88 107.836 80.48C107.623 80.08 107.516 79.4667 107.516 78.64C107.516 77.9733 107.57 77.1333 107.676 76.12C107.81 75.08 107.97 73.9733 108.156 72.8C108.343 71.6 108.49 70.3333 108.596 69C108.73 67.6667 108.796 66.32 108.796 64.96C108.796 64.4267 108.783 63.8533 108.756 63.24C108.73 62.6267 108.676 62.0267 108.596 61.44C108.41 61.5467 108.223 61.64 108.036 61.72C107.876 61.7733 107.716 61.8 107.556 61.8C107.103 61.8 106.876 61.36 106.876 60.48C106.876 59.68 107.05 59.0133 107.396 58.48C107.77 57.92 108.436 57.3867 109.396 56.88C110.33 56.3733 111.423 55.96 112.676 55.64C113.956 55.2933 115.25 55.12 116.556 55.12C119.143 55.12 121.21 55.8 122.756 57.16C124.33 58.52 125.116 60.3333 125.116 62.6C125.116 63.9867 124.836 65.2667 124.276 66.44C123.716 67.6133 122.97 68.64 122.036 69.52C121.13 70.3733 120.13 71.04 119.036 71.52C117.97 71.9733 116.916 72.2 115.876 72.2C114.89 72.2 114.223 71.9867 113.876 71.56C113.53 71.1067 113.356 70.4667 113.356 69.64C113.356 69.24 113.396 68.88 113.476 68.56C113.583 68.2133 113.796 68.04 114.116 68.04C114.196 68.04 114.316 68.0533 114.476 68.08C114.636 68.1067 114.796 68.1467 114.956 68.2C115.116 68.2267 115.343 68.2667 115.636 68.32C115.93 68.3733 116.263 68.4 116.636 68.4C118.103 68.4 119.29 67.9867 120.196 67.16C121.13 66.3333 121.596 65.2667 121.596 63.96C121.596 62.6 121.09 61.5333 120.076 60.76C119.063 59.9867 117.756 59.6 116.156 59.6C115.57 59.6 114.97 59.6533 114.356 59.76C113.743 59.84 113.13 59.96 112.516 60.12C112.436 61.88 112.25 63.88 111.956 66.12C111.796 67.4533 111.65 68.7733 111.516 70.08C111.41 71.36 111.356 72.5333 111.356 73.6C111.356 74.5333 111.436 75.36 111.596 76.08C111.783 76.7733 112.143 77.3733 112.676 77.88C113.05 78.2533 113.236 78.6533 113.236 79.08C113.236 79.6667 112.903 80.2 112.236 80.68C111.57 81.16 110.703 81.4 109.636 81.4ZM132.488 81.52C130.648 81.52 129.168 81.0267 128.048 80.04C126.955 79.0267 126.408 77.5467 126.408 75.6C126.408 74.6933 126.528 73.8133 126.768 72.96C127.035 72.1067 127.382 71.3067 127.808 70.56C127.382 70.8267 127.062 70.96 126.848 70.96C126.528 70.96 126.302 70.7867 126.168 70.44C126.062 70.0667 126.008 69.7067 126.008 69.36C126.008 68.7467 126.128 68.2667 126.368 67.92C126.635 67.5467 126.888 67.2667 127.128 67.08C127.688 66.6 128.568 66.08 129.768 65.52C130.968 64.9333 132.408 64.64 134.088 64.64C136.382 64.64 138.155 65.28 139.408 66.56C140.688 67.84 141.328 69.6267 141.328 71.92C141.328 73.7067 140.955 75.3333 140.208 76.8C139.462 78.24 138.422 79.3867 137.088 80.24C135.782 81.0933 134.248 81.52 132.488 81.52ZM133.728 77.44C135.062 77.44 136.182 77.0267 137.088 76.2C138.022 75.3467 138.488 74.2267 138.488 72.84C138.488 71.4 138.022 70.3733 137.088 69.76C136.155 69.1467 135.075 68.84 133.848 68.84C133.288 68.84 132.782 68.8933 132.328 69C131.875 69.1067 131.448 69.24 131.048 69.4C130.675 69.9333 130.342 70.5333 130.048 71.2C129.755 71.8667 129.608 72.6 129.608 73.4C129.608 74.7333 130.008 75.7467 130.808 76.44C131.608 77.1067 132.582 77.44 133.728 77.44ZM149.371 81.52C147.771 81.52 146.477 81.0267 145.491 80.04C144.531 79.0267 144.051 77.5867 144.051 75.72C144.051 74.3867 144.304 73.0667 144.811 71.76C145.344 70.4267 146.104 69.2267 147.091 68.16C148.077 67.0933 149.264 66.24 150.651 65.6C152.037 64.96 153.597 64.64 155.331 64.64C156.931 64.64 158.291 64.92 159.411 65.48C160.557 66.0133 161.131 66.7467 161.131 67.68C161.131 67.92 161.104 68.24 161.051 68.64C160.997 69.0133 160.931 69.32 160.851 69.56C160.771 69.7733 160.651 69.9733 160.491 70.16C160.357 70.32 160.171 70.4 159.931 70.4C159.824 70.4 159.624 70.36 159.331 70.28C159.224 70.84 159.144 71.3867 159.091 71.92C159.037 72.4533 159.011 72.9867 159.011 73.52C159.011 74.5333 159.157 75.44 159.451 76.24C159.771 77.0133 160.384 77.4933 161.291 77.68C161.531 77.7333 161.717 77.8133 161.851 77.92C162.011 78.0267 162.091 78.2533 162.091 78.6C162.091 78.8933 162.011 79.2667 161.851 79.72C161.717 80.1733 161.437 80.5867 161.011 80.96C160.611 81.3067 160.024 81.48 159.251 81.48C158.211 81.48 157.411 81.1067 156.851 80.36C156.291 79.5867 156.011 78.4933 156.011 77.08C155.291 78.3867 154.371 79.4533 153.251 80.28C152.157 81.1067 150.864 81.52 149.371 81.52ZM150.651 77.36C151.717 77.36 152.651 77.0267 153.451 76.36C154.277 75.6933 154.917 74.8533 155.371 73.84C155.664 73.2 155.891 72.5067 156.051 71.76C156.211 70.9867 156.317 70.2267 156.371 69.48C155.917 69.2667 155.397 69.0933 154.811 68.96C154.224 68.8267 153.611 68.76 152.971 68.76C151.344 68.76 149.997 69.24 148.931 70.2C147.891 71.16 147.371 72.36 147.371 73.8C147.371 74.8667 147.664 75.7333 148.251 76.4C148.837 77.04 149.637 77.36 150.651 77.36Z" fill="#020202"/>
<path d="M68.2414 17.2742H48.2579C47.1487 17.2742 46.1256 16.6765 45.5808 15.7102C44.4265 13.6626 45.9047 11.1298 48.2553 11.1278L106.511 11.0787C107.441 11.0779 108.297 10.5713 108.744 9.75658C109.679 8.05672 108.449 5.97742 106.509 5.97742H88.3211C87.3079 5.97742 86.6771 7.07696 87.1884 7.95161C87.6998 8.82627 87.069 9.92581 86.0558 9.92581H82.9012C81.78 9.92581 80.7449 9.32453 80.1894 8.35056L79.6656 7.43222C77.7813 4.12832 80.1793 0.0233881 83.9827 0.0421056L111.464 0.177349C115.285 0.196153 117.674 4.32032 115.789 7.64402L111.764 14.7409C110.876 16.3067 109.215 17.2742 107.415 17.2742H101.49C97.6452 17.2742 95.239 21.4323 97.1547 24.7656L100.918 31.3135C101.499 32.3241 101.469 33.5739 100.84 34.5555C99.5772 36.5278 96.6736 36.4612 95.5025 34.433L86.4125 18.6907C85.9064 17.8141 84.9711 17.2742 83.9589 17.2742C81.7785 17.2742 80.4153 19.6341 81.5046 21.5229L93.8568 42.9403C94.4249 43.9254 94.4323 45.1369 93.8762 46.1288C92.6624 48.2942 89.5598 48.334 88.2908 46.2005L72.5386 19.7181C71.6373 18.2028 70.0045 17.2742 68.2414 17.2742Z" fill="#020202"/>
</svg>
