<svg width="164" height="136" viewBox="0 0 164 136" fill="none" xmlns="http://www.w3.org/2000/svg">
<path d="M9.24 125.4C8.92 125.4 8.58667 125.347 8.24 125.24C7.92 125.133 7.65333 124.88 7.44 124.48C7.22667 124.08 7.12 123.467 7.12 122.64C7.12 122.053 7.16 121.333 7.24 120.48C7.34667 119.627 7.48 118.707 7.64 117.72C7.85333 116.387 8.02667 114.987 8.16 113.52C8.32 112.027 8.4 110.507 8.4 108.96C8.4 107.707 8.33333 106.627 8.2 105.72C8.09333 104.787 7.94667 104.067 7.76 103.56C6.74667 103.587 5.78667 103.653 4.88 103.76C3.97333 103.867 3.05333 104.04 2.12 104.28C1.88 104.307 1.66667 104.347 1.48 104.4C1.32 104.427 1.16 104.44 1 104.44C0.76 104.44 0.586667 104.4 0.48 104.32C0.373333 104.213 0.32 103.973 0.32 103.6C0.32 103.147 0.386667 102.68 0.52 102.2C0.653333 101.693 0.853333 101.267 1.12 100.92C1.38667 100.547 1.69333 100.28 2.04 100.12C2.41333 99.9333 2.81333 99.8133 3.24 99.76C3.90667 99.68 4.76 99.6133 5.8 99.56C6.84 99.48 7.97333 99.4133 9.2 99.36C10.4533 99.3067 11.68 99.28 12.88 99.28C14.8267 99.28 16.2133 99.2933 17.04 99.32C17.8933 99.3467 18.4667 99.3867 18.76 99.44C19.1333 99.4933 19.3867 99.6133 19.52 99.8C19.68 99.96 19.76 100.227 19.76 100.6C19.76 101.32 19.44 102.04 18.8 102.76C18.5333 103.08 18.2533 103.333 17.96 103.52C17.6667 103.68 17.28 103.747 16.8 103.72C16.3733 103.667 15.7467 103.627 14.92 103.6C14.0933 103.573 13.1733 103.56 12.16 103.56C12.1333 104.493 12.0533 105.587 11.92 106.84C11.8133 108.067 11.68 109.307 11.52 110.56C11.36 111.787 11.2267 113.013 11.12 114.24C11.0133 115.467 10.96 116.587 10.96 117.6C10.96 118.533 11.04 119.36 11.2 120.08C11.3867 120.773 11.7467 121.373 12.28 121.88C12.6533 122.253 12.84 122.653 12.84 123.08C12.84 123.667 12.5067 124.2 11.84 124.68C11.1733 125.16 10.3067 125.4 9.24 125.4ZM22.9269 105.12C22.1802 105.093 21.5802 104.867 21.1269 104.44C20.6735 104.013 20.4469 103.413 20.4469 102.64C20.4735 101.813 20.7535 101.147 21.2869 100.64C21.8202 100.107 22.5002 99.8533 23.3269 99.88C24.1002 99.9067 24.7002 100.133 25.1269 100.56C25.5802 100.987 25.7935 101.587 25.7669 102.36C25.7402 103.16 25.4735 103.827 24.9669 104.36C24.4602 104.867 23.7802 105.12 22.9269 105.12ZM22.9669 125.4C22.1669 125.4 21.5402 125.187 21.0869 124.76C20.6335 124.307 20.4069 123.547 20.4069 122.48C20.4069 121.867 20.4602 121.267 20.5669 120.68C20.7002 120.093 20.8469 119.52 21.0069 118.96C21.1935 118.373 21.3402 117.773 21.4469 117.16C21.5802 116.547 21.6469 115.893 21.6469 115.2C21.6469 114.72 21.5802 114.267 21.4469 113.84C21.3135 113.387 21.0202 113.053 20.5669 112.84C20.2202 112.653 19.9135 112.467 19.6469 112.28C19.4069 112.067 19.2869 111.8 19.2869 111.48C19.2869 111.107 19.4602 110.707 19.8069 110.28C20.1535 109.853 20.6069 109.493 21.1669 109.2C21.7535 108.88 22.3535 108.72 22.9669 108.72C23.6335 108.72 24.1135 108.893 24.4069 109.24C24.7269 109.587 24.9402 110.027 25.0469 110.56C25.1535 111.093 25.2069 111.64 25.2069 112.2C25.2069 113.053 25.1402 113.893 25.0069 114.72C24.8735 115.52 24.7402 116.267 24.6069 116.96C24.5002 117.467 24.4202 117.933 24.3669 118.36C24.3135 118.787 24.2869 119.187 24.2869 119.56C24.2869 120.227 24.4469 120.733 24.7669 121.08C25.0869 121.4 25.5402 121.707 26.1269 122C26.3669 122.133 26.4869 122.333 26.4869 122.6C26.4869 122.813 26.3802 123.147 26.1669 123.6C25.9535 124.053 25.5802 124.467 25.0469 124.84C24.5402 125.213 23.8469 125.4 22.9669 125.4ZM35.2888 125.52C33.4221 125.52 31.9554 124.96 30.8888 123.84C29.8488 122.693 29.3288 121.107 29.3288 119.08C29.3288 117.08 29.7554 115.293 30.6087 113.72C31.4621 112.147 32.6354 110.907 34.1288 110C35.6221 109.093 37.3154 108.64 39.2088 108.64C40.4888 108.64 41.5021 108.853 42.2488 109.28C42.9954 109.707 43.3688 110.293 43.3688 111.04C43.3688 111.707 43.0488 112.36 42.4088 113C42.1688 113.24 41.8488 113.467 41.4488 113.68C41.0754 113.867 40.7821 113.96 40.5688 113.96C40.3288 113.96 40.1288 113.867 39.9688 113.68C39.7021 113.387 39.3554 113.107 38.9288 112.84C38.5021 112.573 37.9021 112.44 37.1288 112.44C35.8221 112.44 34.7554 112.893 33.9288 113.8C33.1021 114.68 32.6888 115.84 32.6888 117.28C32.6888 118.587 33.0621 119.64 33.8088 120.44C34.5554 121.24 35.5421 121.64 36.7688 121.64C37.4088 121.64 38.1021 121.533 38.8488 121.32C39.6221 121.08 40.3021 120.747 40.8888 120.32C41.1821 120.053 41.4888 119.92 41.8088 119.92C42.3421 119.92 42.6088 120.253 42.6088 120.92C42.6088 121.8 42.1688 122.64 41.2888 123.44C40.6221 124.053 39.7288 124.56 38.6088 124.96C37.5154 125.333 36.4088 125.52 35.2888 125.52ZM47.0244 125.44C46.731 125.44 46.451 125.347 46.1844 125.16C45.9177 125 45.811 124.773 45.8644 124.48C46.2644 122.347 46.5977 120.187 46.8644 118C47.1577 115.787 47.3044 113.56 47.3044 111.32C47.3044 109.347 47.2377 107.56 47.1044 105.96C46.971 104.36 46.5444 102.827 45.8244 101.36C45.691 101.067 45.5844 100.813 45.5044 100.6C45.4244 100.387 45.3844 100.187 45.3844 100C45.3844 99.4933 45.6777 99 46.2644 98.52C46.851 98.04 47.4777 97.8 48.1444 97.8C49.1044 97.8 49.7577 98.3867 50.1044 99.56C50.451 100.733 50.6244 102.467 50.6244 104.76C50.6244 107.507 50.4644 109.907 50.1444 111.96C49.8244 113.987 49.5444 115.533 49.3044 116.6L49.4644 116.68C49.9977 115.373 50.6777 114.12 51.5044 112.92C52.331 111.693 53.2777 110.68 54.3444 109.88C55.4377 109.08 56.6244 108.68 57.9044 108.68C59.1577 108.68 60.1177 109.053 60.7844 109.8C61.4777 110.547 61.8244 111.44 61.8244 112.48C61.8244 113.707 61.3844 114.8 60.5044 115.76C59.6244 116.72 58.4777 117.52 57.0644 118.16C57.411 119.067 57.9044 119.787 58.5444 120.32C59.1844 120.827 59.9977 121.08 60.9844 121.08C61.3044 121.08 61.571 121.053 61.7844 121C62.131 120.92 62.3044 121.253 62.3044 122C62.3044 122.427 62.2244 122.907 62.0644 123.44C61.9044 123.973 61.5844 124.44 61.1044 124.84C60.651 125.213 59.9577 125.4 59.0244 125.4C57.771 125.4 56.7444 125.04 55.9444 124.32C55.171 123.573 54.5577 122.667 54.1044 121.6C53.6777 120.507 53.3444 119.427 53.1044 118.36C52.891 117.373 53.2244 116.853 54.1044 116.8C55.0377 116.693 55.8244 116.413 56.4644 115.96C57.1044 115.507 57.4244 114.907 57.4244 114.16C57.4244 113.307 57.011 112.88 56.1844 112.88C55.651 112.88 55.1044 113.08 54.5444 113.48C54.011 113.853 53.5044 114.307 53.0244 114.84C52.571 115.373 52.1977 115.893 51.9044 116.4C51.5044 117.093 51.1577 117.773 50.8644 118.44C50.571 119.107 50.331 119.773 50.1444 120.44V122.04C50.1444 123.027 49.851 123.84 49.2644 124.48C48.7044 125.12 47.9577 125.44 47.0244 125.44ZM71.3938 125.52C69.3671 125.52 67.7804 124.947 66.6338 123.8C65.5138 122.627 64.9538 121 64.9538 118.92C64.9538 117.027 65.3671 115.307 66.1938 113.76C67.0204 112.213 68.1271 110.987 69.5138 110.08C70.9271 109.147 72.4738 108.68 74.1537 108.68C75.7538 108.68 77.0338 109.08 77.9938 109.88C78.9538 110.653 79.4338 111.693 79.4338 113C79.4338 114.04 79.1138 115 78.4738 115.88C77.8338 116.76 76.9804 117.467 75.9138 118C74.8471 118.507 73.6604 118.76 72.3538 118.76C70.7538 118.76 69.4471 118.4 68.4338 117.68C68.4604 118.907 68.8738 119.893 69.6738 120.64C70.5004 121.387 71.5538 121.76 72.8338 121.76C73.6071 121.76 74.3938 121.627 75.1938 121.36C76.0204 121.067 76.7271 120.68 77.3138 120.2C77.6871 119.88 78.0338 119.72 78.3538 119.72C78.6204 119.72 78.8338 119.813 78.9938 120C79.1804 120.16 79.2738 120.373 79.2738 120.64C79.2738 121.227 78.7671 122 77.7538 122.96C75.9671 124.667 73.8471 125.52 71.3938 125.52ZM71.9938 116.12C72.9538 116.12 73.7538 115.92 74.3938 115.52C75.0338 115.12 75.3537 114.613 75.3537 114C75.3537 113.493 75.1404 113.107 74.7138 112.84C74.2871 112.547 73.7004 112.4 72.9538 112.4C71.9671 112.4 71.1004 112.667 70.3538 113.2C69.6338 113.707 69.1138 114.427 68.7938 115.36C69.1671 115.6 69.6471 115.787 70.2338 115.92C70.8204 116.053 71.4071 116.12 71.9938 116.12ZM88.3366 125.52C86.7099 125.52 85.5366 124.987 84.8166 123.92C84.1232 122.827 83.7766 121.427 83.7766 119.72C83.7766 119.107 83.8032 118.507 83.8566 117.92C83.9366 117.333 84.0166 116.747 84.0966 116.16C84.1766 115.573 84.2566 115 84.3366 114.44C84.4166 113.88 84.4832 113.347 84.5366 112.84C83.9766 113 83.4166 113.08 82.8566 113.08C82.2699 113.08 81.9766 112.84 81.9766 112.36C81.9766 111.853 82.2032 111.24 82.6566 110.52C83.1099 109.773 83.6699 109.04 84.3366 108.32C85.0299 107.6 85.7099 107 86.3766 106.52C87.0699 106.013 87.6566 105.76 88.1366 105.76C88.7232 105.76 89.0166 106.267 89.0166 107.28C89.0166 107.547 88.9899 107.827 88.9366 108.12C88.9099 108.387 88.8699 108.667 88.8166 108.96C89.3232 108.853 89.8299 108.76 90.3366 108.68C90.8699 108.6 91.3766 108.56 91.8566 108.56C92.4699 108.56 92.9366 108.667 93.2566 108.88C93.6032 109.093 93.7766 109.507 93.7766 110.12C93.7766 110.76 93.6166 111.4 93.2966 112.04C93.0032 112.68 92.6699 113 92.2966 113C92.2166 113 92.0832 112.987 91.8966 112.96C91.7099 112.933 91.4832 112.893 91.2166 112.84C90.8699 112.76 90.4299 112.68 89.8966 112.6C89.3632 112.52 88.7232 112.48 87.9766 112.48C87.7899 113.307 87.6166 114.16 87.4566 115.04C87.3232 115.893 87.2566 116.667 87.2566 117.36C87.2566 118.907 87.6432 119.96 88.4166 120.52C89.1899 121.08 90.3099 121.36 91.7766 121.36C92.2299 121.36 92.5499 121.44 92.7366 121.6C92.9232 121.733 93.0166 121.987 93.0166 122.36C93.0166 123.24 92.5632 123.987 91.6566 124.6C90.7499 125.213 89.6432 125.52 88.3366 125.52ZM109.636 125.4C109.316 125.4 108.983 125.347 108.636 125.24C108.316 125.133 108.05 124.88 107.836 124.48C107.623 124.08 107.516 123.467 107.516 122.64C107.516 121.973 107.57 121.133 107.676 120.12C107.81 119.08 107.97 117.973 108.156 116.8C108.343 115.6 108.49 114.333 108.596 113C108.73 111.667 108.796 110.32 108.796 108.96C108.796 108.427 108.783 107.853 108.756 107.24C108.73 106.627 108.676 106.027 108.596 105.44C108.41 105.547 108.223 105.64 108.036 105.72C107.876 105.773 107.716 105.8 107.556 105.8C107.103 105.8 106.876 105.36 106.876 104.48C106.876 103.68 107.05 103.013 107.396 102.48C107.77 101.92 108.436 101.387 109.396 100.88C110.33 100.373 111.423 99.96 112.676 99.64C113.956 99.2933 115.25 99.12 116.556 99.12C119.143 99.12 121.21 99.8 122.756 101.16C124.33 102.52 125.116 104.333 125.116 106.6C125.116 107.987 124.836 109.267 124.276 110.44C123.716 111.613 122.97 112.64 122.036 113.52C121.13 114.373 120.13 115.04 119.036 115.52C117.97 115.973 116.916 116.2 115.876 116.2C114.89 116.2 114.223 115.987 113.876 115.56C113.53 115.107 113.356 114.467 113.356 113.64C113.356 113.24 113.396 112.88 113.476 112.56C113.583 112.213 113.796 112.04 114.116 112.04C114.196 112.04 114.316 112.053 114.476 112.08C114.636 112.107 114.796 112.147 114.956 112.2C115.116 112.227 115.343 112.267 115.636 112.32C115.93 112.373 116.263 112.4 116.636 112.4C118.103 112.4 119.29 111.987 120.196 111.16C121.13 110.333 121.596 109.267 121.596 107.96C121.596 106.6 121.09 105.533 120.076 104.76C119.063 103.987 117.756 103.6 116.156 103.6C115.57 103.6 114.97 103.653 114.356 103.76C113.743 103.84 113.13 103.96 112.516 104.12C112.436 105.88 112.25 107.88 111.956 110.12C111.796 111.453 111.65 112.773 111.516 114.08C111.41 115.36 111.356 116.533 111.356 117.6C111.356 118.533 111.436 119.36 111.596 120.08C111.783 120.773 112.143 121.373 112.676 121.88C113.05 122.253 113.236 122.653 113.236 123.08C113.236 123.667 112.903 124.2 112.236 124.68C111.57 125.16 110.703 125.4 109.636 125.4ZM132.488 125.52C130.648 125.52 129.168 125.027 128.048 124.04C126.955 123.027 126.408 121.547 126.408 119.6C126.408 118.693 126.528 117.813 126.768 116.96C127.035 116.107 127.382 115.307 127.808 114.56C127.382 114.827 127.062 114.96 126.848 114.96C126.528 114.96 126.302 114.787 126.168 114.44C126.062 114.067 126.008 113.707 126.008 113.36C126.008 112.747 126.128 112.267 126.368 111.92C126.635 111.547 126.888 111.267 127.128 111.08C127.688 110.6 128.568 110.08 129.768 109.52C130.968 108.933 132.408 108.64 134.088 108.64C136.382 108.64 138.155 109.28 139.408 110.56C140.688 111.84 141.328 113.627 141.328 115.92C141.328 117.707 140.955 119.333 140.208 120.8C139.462 122.24 138.422 123.387 137.088 124.24C135.782 125.093 134.248 125.52 132.488 125.52ZM133.728 121.44C135.062 121.44 136.182 121.027 137.088 120.2C138.022 119.347 138.488 118.227 138.488 116.84C138.488 115.4 138.022 114.373 137.088 113.76C136.155 113.147 135.075 112.84 133.848 112.84C133.288 112.84 132.782 112.893 132.328 113C131.875 113.107 131.448 113.24 131.048 113.4C130.675 113.933 130.342 114.533 130.048 115.2C129.755 115.867 129.608 116.6 129.608 117.4C129.608 118.733 130.008 119.747 130.808 120.44C131.608 121.107 132.582 121.44 133.728 121.44ZM149.371 125.52C147.771 125.52 146.477 125.027 145.491 124.04C144.531 123.027 144.051 121.587 144.051 119.72C144.051 118.387 144.304 117.067 144.811 115.76C145.344 114.427 146.104 113.227 147.091 112.16C148.077 111.093 149.264 110.24 150.651 109.6C152.037 108.96 153.597 108.64 155.331 108.64C156.931 108.64 158.291 108.92 159.411 109.48C160.557 110.013 161.131 110.747 161.131 111.68C161.131 111.92 161.104 112.24 161.051 112.64C160.997 113.013 160.931 113.32 160.851 113.56C160.771 113.773 160.651 113.973 160.491 114.16C160.357 114.32 160.171 114.4 159.931 114.4C159.824 114.4 159.624 114.36 159.331 114.28C159.224 114.84 159.144 115.387 159.091 115.92C159.037 116.453 159.011 116.987 159.011 117.52C159.011 118.533 159.157 119.44 159.451 120.24C159.771 121.013 160.384 121.493 161.291 121.68C161.531 121.733 161.717 121.813 161.851 121.92C162.011 122.027 162.091 122.253 162.091 122.6C162.091 122.893 162.011 123.267 161.851 123.72C161.717 124.173 161.437 124.587 161.011 124.96C160.611 125.307 160.024 125.48 159.251 125.48C158.211 125.48 157.411 125.107 156.851 124.36C156.291 123.587 156.011 122.493 156.011 121.08C155.291 122.387 154.371 123.453 153.251 124.28C152.157 125.107 150.864 125.52 149.371 125.52ZM150.651 121.36C151.717 121.36 152.651 121.027 153.451 120.36C154.277 119.693 154.917 118.853 155.371 117.84C155.664 117.2 155.891 116.507 156.051 115.76C156.211 114.987 156.317 114.227 156.371 113.48C155.917 113.267 155.397 113.093 154.811 112.96C154.224 112.827 153.611 112.76 152.971 112.76C151.344 112.76 149.997 113.24 148.931 114.2C147.891 115.16 147.371 116.36 147.371 117.8C147.371 118.867 147.664 119.733 148.251 120.4C148.837 121.04 149.637 121.36 150.651 121.36Z" fill="#020202"/>
<g filter="url(#filter0_d_245_41)">
<circle cx="81.5" cy="46.5" r="44" stroke="#20222E" stroke-width="5" stroke-linecap="round" shape-rendering="crispEdges"/>
</g>
<path d="M66.2414 45.2742H46.2579C45.1487 45.2742 44.1256 44.6765 43.5808 43.7102C42.4265 41.6626 43.9047 39.1298 46.2553 39.1278L104.511 39.0787C105.441 39.0779 106.297 38.5713 106.744 37.7566C107.679 36.0567 106.449 33.9774 104.509 33.9774H86.3211C85.3079 33.9774 84.6771 35.077 85.1884 35.9516C85.6998 36.8263 85.069 37.9258 84.0558 37.9258H80.9012C79.78 37.9258 78.7449 37.3245 78.1894 36.3506L77.6656 35.4322C75.7813 32.1283 78.1793 28.0234 81.9827 28.0421L109.464 28.1773C113.285 28.1962 115.674 32.3203 113.789 35.644L109.764 42.7409C108.876 44.3067 107.215 45.2742 105.415 45.2742H99.4898C95.6452 45.2742 93.239 49.4323 95.1547 52.7656L98.9178 59.3135C99.4986 60.3241 99.4686 61.5739 98.8401 62.5555C97.5772 64.5278 94.6736 64.4612 93.5025 62.433L84.4125 46.6907C83.9064 45.8141 82.9711 45.2742 81.9589 45.2742C79.7785 45.2742 78.4153 47.6341 79.5046 49.5229L91.8568 70.9403C92.4249 71.9254 92.4323 73.1369 91.8762 74.1288C90.6624 76.2942 87.5598 76.334 86.2908 74.2005L70.5386 47.7181C69.6373 46.2028 68.0045 45.2742 66.2414 45.2742Z" fill="#020202"/>
<defs>
<filter id="filter0_d_245_41" x="33" y="0" width="99" height="99" filterUnits="userSpaceOnUse" color-interpolation-filters="sRGB">
<feFlood flood-opacity="0" result="BackgroundImageFix"/>
<feColorMatrix in="SourceAlpha" type="matrix" values="0 0 0 0 0 0 0 0 0 0 0 0 0 0 0 0 0 0 127 0" result="hardAlpha"/>
<feMorphology radius="1" operator="erode" in="SourceAlpha" result="effect1_dropShadow_245_41"/>
<feOffset dx="1" dy="3"/>
<feGaussianBlur stdDeviation="2"/>
<feComposite in2="hardAlpha" operator="out"/>
<feColorMatrix type="matrix" values="0 0 0 0 0.12549 0 0 0 0 0.133333 0 0 0 0 0.180392 0 0 0 0.2 0"/>
<feBlend mode="normal" in2="BackgroundImageFix" result="effect1_dropShadow_245_41"/>
<feBlend mode="normal" in="SourceGraphic" in2="effect1_dropShadow_245_41" result="shape"/>
</filter>
</defs>
</svg>
