<svg width="252" height="51" viewBox="0 0 252 51" fill="none" xmlns="http://www.w3.org/2000/svg">
<path d="M97.24 39.4C96.92 39.4 96.5867 39.3467 96.24 39.24C95.92 39.1333 95.6533 38.88 95.44 38.48C95.2267 38.08 95.12 37.4667 95.12 36.64C95.12 36.0533 95.16 35.3333 95.24 34.48C95.3467 33.6267 95.48 32.7067 95.64 31.72C95.8533 30.3867 96.0267 28.9867 96.16 27.52C96.32 26.0267 96.4 24.5067 96.4 22.96C96.4 21.7067 96.3333 20.6267 96.2 19.72C96.0933 18.7867 95.9467 18.0667 95.76 17.56C94.7467 17.5867 93.7867 17.6533 92.88 17.76C91.9733 17.8667 91.0533 18.04 90.12 18.28C89.88 18.3067 89.6667 18.3467 89.48 18.4C89.32 18.4267 89.16 18.44 89 18.44C88.76 18.44 88.5867 18.4 88.48 18.32C88.3733 18.2133 88.32 17.9733 88.32 17.6C88.32 17.1467 88.3867 16.68 88.52 16.2C88.6533 15.6933 88.8533 15.2667 89.12 14.92C89.3867 14.5467 89.6933 14.28 90.04 14.12C90.4133 13.9333 90.8133 13.8133 91.24 13.76C91.9067 13.68 92.76 13.6133 93.8 13.56C94.84 13.48 95.9733 13.4133 97.2 13.36C98.4533 13.3067 99.68 13.28 100.88 13.28C102.827 13.28 104.213 13.2933 105.04 13.32C105.893 13.3467 106.467 13.3867 106.76 13.44C107.133 13.4933 107.387 13.6133 107.52 13.8C107.68 13.96 107.76 14.2267 107.76 14.6C107.76 15.32 107.44 16.04 106.8 16.76C106.533 17.08 106.253 17.3333 105.96 17.52C105.667 17.68 105.28 17.7467 104.8 17.72C104.373 17.6667 103.747 17.6267 102.92 17.6C102.093 17.5733 101.173 17.56 100.16 17.56C100.133 18.4933 100.053 19.5867 99.92 20.84C99.8133 22.0667 99.68 23.3067 99.52 24.56C99.36 25.7867 99.2267 27.0133 99.12 28.24C99.0133 29.4667 98.96 30.5867 98.96 31.6C98.96 32.5333 99.04 33.36 99.2 34.08C99.3867 34.7733 99.7467 35.3733 100.28 35.88C100.653 36.2533 100.84 36.6533 100.84 37.08C100.84 37.6667 100.507 38.2 99.84 38.68C99.1733 39.16 98.3067 39.4 97.24 39.4ZM110.927 19.12C110.18 19.0933 109.58 18.8667 109.127 18.44C108.674 18.0133 108.447 17.4133 108.447 16.64C108.474 15.8133 108.754 15.1467 109.287 14.64C109.82 14.1067 110.5 13.8533 111.327 13.88C112.1 13.9067 112.7 14.1333 113.127 14.56C113.58 14.9867 113.794 15.5867 113.767 16.36C113.74 17.16 113.474 17.8267 112.967 18.36C112.46 18.8667 111.78 19.12 110.927 19.12ZM110.967 39.4C110.167 39.4 109.54 39.1867 109.087 38.76C108.634 38.3067 108.407 37.5467 108.407 36.48C108.407 35.8667 108.46 35.2667 108.567 34.68C108.7 34.0933 108.847 33.52 109.007 32.96C109.194 32.3733 109.34 31.7733 109.447 31.16C109.58 30.5467 109.647 29.8933 109.647 29.2C109.647 28.72 109.58 28.2667 109.447 27.84C109.314 27.3867 109.02 27.0533 108.567 26.84C108.22 26.6533 107.914 26.4667 107.647 26.28C107.407 26.0667 107.287 25.8 107.287 25.48C107.287 25.1067 107.46 24.7067 107.807 24.28C108.154 23.8533 108.607 23.4933 109.167 23.2C109.754 22.88 110.354 22.72 110.967 22.72C111.634 22.72 112.114 22.8933 112.407 23.24C112.727 23.5867 112.94 24.0267 113.047 24.56C113.154 25.0933 113.207 25.64 113.207 26.2C113.207 27.0533 113.14 27.8933 113.007 28.72C112.874 29.52 112.74 30.2667 112.607 30.96C112.5 31.4667 112.42 31.9333 112.367 32.36C112.314 32.7867 112.287 33.1867 112.287 33.56C112.287 34.2267 112.447 34.7333 112.767 35.08C113.087 35.4 113.54 35.7067 114.127 36C114.367 36.1333 114.487 36.3333 114.487 36.6C114.487 36.8133 114.38 37.1467 114.167 37.6C113.954 38.0533 113.58 38.4667 113.047 38.84C112.54 39.2133 111.847 39.4 110.967 39.4ZM123.289 39.52C121.422 39.52 119.955 38.96 118.889 37.84C117.849 36.6933 117.329 35.1067 117.329 33.08C117.329 31.08 117.755 29.2933 118.609 27.72C119.462 26.1467 120.635 24.9067 122.129 24C123.622 23.0933 125.315 22.64 127.209 22.64C128.489 22.64 129.502 22.8533 130.249 23.28C130.995 23.7067 131.369 24.2933 131.369 25.04C131.369 25.7067 131.049 26.36 130.409 27C130.169 27.24 129.849 27.4667 129.449 27.68C129.075 27.8667 128.782 27.96 128.569 27.96C128.329 27.96 128.129 27.8667 127.969 27.68C127.702 27.3867 127.355 27.1067 126.929 26.84C126.502 26.5733 125.902 26.44 125.129 26.44C123.822 26.44 122.755 26.8933 121.929 27.8C121.102 28.68 120.689 29.84 120.689 31.28C120.689 32.5867 121.062 33.64 121.809 34.44C122.555 35.24 123.542 35.64 124.769 35.64C125.409 35.64 126.102 35.5333 126.849 35.32C127.622 35.08 128.302 34.7467 128.889 34.32C129.182 34.0533 129.489 33.92 129.809 33.92C130.342 33.92 130.609 34.2533 130.609 34.92C130.609 35.8 130.169 36.64 129.289 37.44C128.622 38.0533 127.729 38.56 126.609 38.96C125.515 39.3333 124.409 39.52 123.289 39.52ZM135.024 39.44C134.731 39.44 134.451 39.3467 134.184 39.16C133.918 39 133.811 38.7733 133.864 38.48C134.264 36.3467 134.598 34.1867 134.864 32C135.158 29.7867 135.304 27.56 135.304 25.32C135.304 23.3467 135.238 21.56 135.104 19.96C134.971 18.36 134.544 16.8267 133.824 15.36C133.691 15.0667 133.584 14.8133 133.504 14.6C133.424 14.3867 133.384 14.1867 133.384 14C133.384 13.4933 133.678 13 134.264 12.52C134.851 12.04 135.478 11.8 136.144 11.8C137.104 11.8 137.758 12.3867 138.104 13.56C138.451 14.7333 138.624 16.4667 138.624 18.76C138.624 21.5067 138.464 23.9067 138.144 25.96C137.824 27.9867 137.544 29.5333 137.304 30.6L137.464 30.68C137.998 29.3733 138.678 28.12 139.504 26.92C140.331 25.6933 141.278 24.68 142.344 23.88C143.438 23.08 144.624 22.68 145.904 22.68C147.158 22.68 148.118 23.0533 148.784 23.8C149.478 24.5467 149.824 25.44 149.824 26.48C149.824 27.7067 149.384 28.8 148.504 29.76C147.624 30.72 146.478 31.52 145.064 32.16C145.411 33.0667 145.904 33.7867 146.544 34.32C147.184 34.8267 147.998 35.08 148.984 35.08C149.304 35.08 149.571 35.0533 149.784 35C150.131 34.92 150.304 35.2533 150.304 36C150.304 36.4267 150.224 36.9067 150.064 37.44C149.904 37.9733 149.584 38.44 149.104 38.84C148.651 39.2133 147.958 39.4 147.024 39.4C145.771 39.4 144.744 39.04 143.944 38.32C143.171 37.5733 142.558 36.6667 142.104 35.6C141.678 34.5067 141.344 33.4267 141.104 32.36C140.891 31.3733 141.224 30.8533 142.104 30.8C143.038 30.6933 143.824 30.4133 144.464 29.96C145.104 29.5067 145.424 28.9067 145.424 28.16C145.424 27.3067 145.011 26.88 144.184 26.88C143.651 26.88 143.104 27.08 142.544 27.48C142.011 27.8533 141.504 28.3067 141.024 28.84C140.571 29.3733 140.198 29.8933 139.904 30.4C139.504 31.0933 139.158 31.7733 138.864 32.44C138.571 33.1067 138.331 33.7733 138.144 34.44V36.04C138.144 37.0267 137.851 37.84 137.264 38.48C136.704 39.12 135.958 39.44 135.024 39.44ZM159.394 39.52C157.367 39.52 155.78 38.9467 154.634 37.8C153.514 36.6267 152.954 35 152.954 32.92C152.954 31.0267 153.367 29.3067 154.194 27.76C155.02 26.2133 156.127 24.9867 157.514 24.08C158.927 23.1467 160.474 22.68 162.154 22.68C163.754 22.68 165.034 23.08 165.994 23.88C166.954 24.6533 167.434 25.6933 167.434 27C167.434 28.04 167.114 29 166.474 29.88C165.834 30.76 164.98 31.4667 163.914 32C162.847 32.5067 161.66 32.76 160.354 32.76C158.754 32.76 157.447 32.4 156.434 31.68C156.46 32.9067 156.874 33.8933 157.674 34.64C158.5 35.3867 159.554 35.76 160.834 35.76C161.607 35.76 162.394 35.6267 163.194 35.36C164.02 35.0667 164.727 34.68 165.314 34.2C165.687 33.88 166.034 33.72 166.354 33.72C166.62 33.72 166.834 33.8133 166.994 34C167.18 34.16 167.274 34.3733 167.274 34.64C167.274 35.2267 166.767 36 165.754 36.96C163.967 38.6667 161.847 39.52 159.394 39.52ZM159.994 30.12C160.954 30.12 161.754 29.92 162.394 29.52C163.034 29.12 163.354 28.6133 163.354 28C163.354 27.4933 163.14 27.1067 162.714 26.84C162.287 26.5467 161.7 26.4 160.954 26.4C159.967 26.4 159.1 26.6667 158.354 27.2C157.634 27.7067 157.114 28.4267 156.794 29.36C157.167 29.6 157.647 29.7867 158.234 29.92C158.82 30.0533 159.407 30.12 159.994 30.12ZM176.337 39.52C174.71 39.52 173.537 38.9867 172.817 37.92C172.123 36.8267 171.777 35.4267 171.777 33.72C171.777 33.1067 171.803 32.5067 171.857 31.92C171.937 31.3333 172.017 30.7467 172.097 30.16C172.177 29.5733 172.257 29 172.337 28.44C172.417 27.88 172.483 27.3467 172.537 26.84C171.977 27 171.417 27.08 170.857 27.08C170.27 27.08 169.977 26.84 169.977 26.36C169.977 25.8533 170.203 25.24 170.657 24.52C171.11 23.7733 171.67 23.04 172.337 22.32C173.03 21.6 173.71 21 174.377 20.52C175.07 20.0133 175.657 19.76 176.137 19.76C176.723 19.76 177.017 20.2667 177.017 21.28C177.017 21.5467 176.99 21.8267 176.937 22.12C176.91 22.3867 176.87 22.6667 176.817 22.96C177.323 22.8533 177.83 22.76 178.337 22.68C178.87 22.6 179.377 22.56 179.857 22.56C180.47 22.56 180.937 22.6667 181.257 22.88C181.603 23.0933 181.777 23.5067 181.777 24.12C181.777 24.76 181.617 25.4 181.297 26.04C181.003 26.68 180.67 27 180.297 27C180.217 27 180.083 26.9867 179.897 26.96C179.71 26.9333 179.483 26.8933 179.217 26.84C178.87 26.76 178.43 26.68 177.897 26.6C177.363 26.52 176.723 26.48 175.977 26.48C175.79 27.3067 175.617 28.16 175.457 29.04C175.323 29.8933 175.257 30.6667 175.257 31.36C175.257 32.9067 175.643 33.96 176.417 34.52C177.19 35.08 178.31 35.36 179.777 35.36C180.23 35.36 180.55 35.44 180.737 35.6C180.923 35.7333 181.017 35.9867 181.017 36.36C181.017 37.24 180.563 37.9867 179.657 38.6C178.75 39.2133 177.643 39.52 176.337 39.52ZM197.636 39.4C197.316 39.4 196.983 39.3467 196.636 39.24C196.316 39.1333 196.05 38.88 195.836 38.48C195.623 38.08 195.516 37.4667 195.516 36.64C195.516 35.9733 195.57 35.1333 195.676 34.12C195.81 33.08 195.97 31.9733 196.156 30.8C196.343 29.6 196.49 28.3333 196.596 27C196.73 25.6667 196.796 24.32 196.796 22.96C196.796 22.4267 196.783 21.8533 196.756 21.24C196.73 20.6267 196.676 20.0267 196.596 19.44C196.41 19.5467 196.223 19.64 196.036 19.72C195.876 19.7733 195.716 19.8 195.556 19.8C195.103 19.8 194.876 19.36 194.876 18.48C194.876 17.68 195.05 17.0133 195.396 16.48C195.77 15.92 196.436 15.3867 197.396 14.88C198.33 14.3733 199.423 13.96 200.676 13.64C201.956 13.2933 203.25 13.12 204.556 13.12C207.143 13.12 209.21 13.8 210.756 15.16C212.33 16.52 213.116 18.3333 213.116 20.6C213.116 21.9867 212.836 23.2667 212.276 24.44C211.716 25.6133 210.97 26.64 210.036 27.52C209.13 28.3733 208.13 29.04 207.036 29.52C205.97 29.9733 204.916 30.2 203.876 30.2C202.89 30.2 202.223 29.9867 201.876 29.56C201.53 29.1067 201.356 28.4667 201.356 27.64C201.356 27.24 201.396 26.88 201.476 26.56C201.583 26.2133 201.796 26.04 202.116 26.04C202.196 26.04 202.316 26.0533 202.476 26.08C202.636 26.1067 202.796 26.1467 202.956 26.2C203.116 26.2267 203.343 26.2667 203.636 26.32C203.93 26.3733 204.263 26.4 204.636 26.4C206.103 26.4 207.29 25.9867 208.196 25.16C209.13 24.3333 209.596 23.2667 209.596 21.96C209.596 20.6 209.09 19.5333 208.076 18.76C207.063 17.9867 205.756 17.6 204.156 17.6C203.57 17.6 202.97 17.6533 202.356 17.76C201.743 17.84 201.13 17.96 200.516 18.12C200.436 19.88 200.25 21.88 199.956 24.12C199.796 25.4533 199.65 26.7733 199.516 28.08C199.41 29.36 199.356 30.5333 199.356 31.6C199.356 32.5333 199.436 33.36 199.596 34.08C199.783 34.7733 200.143 35.3733 200.676 35.88C201.05 36.2533 201.236 36.6533 201.236 37.08C201.236 37.6667 200.903 38.2 200.236 38.68C199.57 39.16 198.703 39.4 197.636 39.4ZM220.488 39.52C218.648 39.52 217.168 39.0267 216.048 38.04C214.955 37.0267 214.408 35.5467 214.408 33.6C214.408 32.6933 214.528 31.8133 214.768 30.96C215.035 30.1067 215.382 29.3067 215.808 28.56C215.382 28.8267 215.062 28.96 214.848 28.96C214.528 28.96 214.302 28.7867 214.168 28.44C214.062 28.0667 214.008 27.7067 214.008 27.36C214.008 26.7467 214.128 26.2667 214.368 25.92C214.635 25.5467 214.888 25.2667 215.128 25.08C215.688 24.6 216.568 24.08 217.768 23.52C218.968 22.9333 220.408 22.64 222.088 22.64C224.382 22.64 226.155 23.28 227.408 24.56C228.688 25.84 229.328 27.6267 229.328 29.92C229.328 31.7067 228.955 33.3333 228.208 34.8C227.462 36.24 226.422 37.3867 225.088 38.24C223.782 39.0933 222.248 39.52 220.488 39.52ZM221.728 35.44C223.062 35.44 224.182 35.0267 225.088 34.2C226.022 33.3467 226.488 32.2267 226.488 30.84C226.488 29.4 226.022 28.3733 225.088 27.76C224.155 27.1467 223.075 26.84 221.848 26.84C221.288 26.84 220.782 26.8933 220.328 27C219.875 27.1067 219.448 27.24 219.048 27.4C218.675 27.9333 218.342 28.5333 218.048 29.2C217.755 29.8667 217.608 30.6 217.608 31.4C217.608 32.7333 218.008 33.7467 218.808 34.44C219.608 35.1067 220.582 35.44 221.728 35.44ZM237.371 39.52C235.771 39.52 234.477 39.0267 233.491 38.04C232.531 37.0267 232.051 35.5867 232.051 33.72C232.051 32.3867 232.304 31.0667 232.811 29.76C233.344 28.4267 234.104 27.2267 235.091 26.16C236.077 25.0933 237.264 24.24 238.651 23.6C240.037 22.96 241.597 22.64 243.331 22.64C244.931 22.64 246.291 22.92 247.411 23.48C248.557 24.0133 249.131 24.7467 249.131 25.68C249.131 25.92 249.104 26.24 249.051 26.64C248.997 27.0133 248.931 27.32 248.851 27.56C248.771 27.7733 248.651 27.9733 248.491 28.16C248.357 28.32 248.171 28.4 247.931 28.4C247.824 28.4 247.624 28.36 247.331 28.28C247.224 28.84 247.144 29.3867 247.091 29.92C247.037 30.4533 247.011 30.9867 247.011 31.52C247.011 32.5333 247.157 33.44 247.451 34.24C247.771 35.0133 248.384 35.4933 249.291 35.68C249.531 35.7333 249.717 35.8133 249.851 35.92C250.011 36.0267 250.091 36.2533 250.091 36.6C250.091 36.8933 250.011 37.2667 249.851 37.72C249.717 38.1733 249.437 38.5867 249.011 38.96C248.611 39.3067 248.024 39.48 247.251 39.48C246.211 39.48 245.411 39.1067 244.851 38.36C244.291 37.5867 244.011 36.4933 244.011 35.08C243.291 36.3867 242.371 37.4533 241.251 38.28C240.157 39.1067 238.864 39.52 237.371 39.52ZM238.651 35.36C239.717 35.36 240.651 35.0267 241.451 34.36C242.277 33.6933 242.917 32.8533 243.371 31.84C243.664 31.2 243.891 30.5067 244.051 29.76C244.211 28.9867 244.317 28.2267 244.371 27.48C243.917 27.2667 243.397 27.0933 242.811 26.96C242.224 26.8267 241.611 26.76 240.971 26.76C239.344 26.76 237.997 27.24 236.931 28.2C235.891 29.16 235.371 30.36 235.371 31.8C235.371 32.8667 235.664 33.7333 236.251 34.4C236.837 35.04 237.637 35.36 238.651 35.36Z" fill="#020202"/>
<path d="M25.2414 17.2742H5.25791C4.1487 17.2742 3.12556 16.6765 2.58083 15.7102C1.42648 13.6626 2.90472 11.1298 5.25532 11.1278L63.5114 11.0787C64.4411 11.0779 65.2967 10.5713 65.7445 9.75658C66.6788 8.05672 65.4489 5.97742 63.5092 5.97742H45.3211C44.3079 5.97742 43.6771 7.07696 44.1884 7.95161C44.6998 8.82627 44.069 9.92581 43.0558 9.92581H39.9012C38.78 9.92581 37.7449 9.32453 37.1894 8.35056L36.6656 7.43222C34.7813 4.12832 37.1793 0.0233881 40.9827 0.0421056L68.4644 0.177349C72.2854 0.196153 74.674 4.32032 72.7889 7.64402L68.7637 14.7409C67.8757 16.3067 66.2146 17.2742 64.4146 17.2742H58.4898C54.6452 17.2742 52.239 21.4323 54.1547 24.7656L57.9178 31.3135C58.4986 32.3241 58.4686 33.5739 57.8401 34.5555C56.5772 36.5278 53.6736 36.4612 52.5025 34.433L43.4125 18.6907C42.9064 17.8141 41.9711 17.2742 40.9589 17.2742C38.7785 17.2742 37.4153 19.6341 38.5046 21.5229L50.8568 42.9403C51.4249 43.9254 51.4323 45.1369 50.8762 46.1288C49.6624 48.2942 46.5598 48.334 45.2908 46.2005L29.5386 19.7181C28.6373 18.2028 27.0045 17.2742 25.2414 17.2742Z" fill="#020202"/>
</svg>
